# xmcd
#
# Track frame offsets: 
#        150
#        12157
#        23624
#        33591
#        47663
#        60412
#        77329
#        88778
#        100589
#        111633
#        125016
#        140167
#        150756
#        164397
#        183665
#        197833
#        207452
#        216559
#        228234
#        239116
#        249852
#        259633
#        271586
#        280197
#        300310
#        310933
#        323725
#        344390
#
# Disc length: 4754 seconds
#
# Revision: 0
# Processed by: cddbd v1.5.1PL2 Copyright (c) Steve Scherf et al.
# Submitted via: ExactAudioCopy v0.95b3
#
DISCID=8512901c
DTITLE=Various Artist - EXPO 2002 [An Allon Compilation]
DYEAR=1900
DGENRE=Other
TTITLE0=The Chocolate Watch Band/EXPO 2000
TTITLE1=The Poets/That's the Way it's Gotta be
TTITLE2=The Majority/One Third
TTITLE3=Zager and Evans/In the Year 2525
TTITLE4=The Lemon Drops/I Live in the Springtime
TTITLE5=The Rascals/Find Somebody
TTITLE6=The Electric Prunes/Get Me to the World on Time
TTITLE7=Captain Beefheart and His Magic Band/Zig Zag Wanderer
TTITLE8=Marc Bolan/The Third Degree
TTITLE9=The Fugs/Crystal Liason
TTITLE10=H P Lovecraft/Spin Spin Spin
TTITLE11=The West Coast Pop Art Experimental Band/I Won't Hurt You
TTITLE12=The Nuchez/Open Up Your Mind
TTITLE13=The Action/Brain
TTITLE14=Donovan/Hey Gyp (Dig the Slowness)
TTITLE15=Kazanetz-Katz Singing Orchestral Circus/Mrs. Green
TTITLE16=The Leaves/Lemon Princess
TTITLE17=Kippington Lodge/Shy Boy
TTITLE18=The Easybeats/Me and My Machine
TTITLE19=Nicky Hopkins and The Whistling Piano/Mr. Pleasant
TTITLE20=The Applejacks/Tell Me When
TTITLE21=Jason Eddie and The Centremen/Young Love
TTITLE22=The Geranium Pond/Dogs in Baskets
TTITLE23=July/Dandelion Seeds
TTITLE24=The Soft Machine/Love Makes Sweet Music
TTITLE25=The Association/Along Comes Mary
TTITLE26=The Youngbloods/Get Together
TTITLE27=The Lovin' Spoonful/Never Goin' Back
EXTD=
EXTT0=
EXTT1=
EXTT2=
EXTT3=
EXTT4=
EXTT5=
EXTT6=
EXTT7=
EXTT8=
EXTT9=
EXTT10=
EXTT11=
EXTT12=
EXTT13=
EXTT14=
EXTT15=
EXTT16=
EXTT17=
EXTT18=
EXTT19=
EXTT20=
EXTT21=
EXTT22=
EXTT23=
EXTT24=
EXTT25=
EXTT26=
EXTT27=
PLAYORDER=
